<svg id="visual" viewBox="0 0 900 600" width="900" height="600" xmlns="http://www.w3.org/2000/svg" xmlns:xlink="http://www.w3.org/1999/xlink" version="1.1"><rect x="0" y="0" width="900" height="600" fill="#030711"></rect><path d="M0 446L16.7 434.8C33.3 423.7 66.7 401.3 100 382.8C133.3 364.3 166.7 349.7 200 351C233.3 352.3 266.7 369.7 300 380.2C333.3 390.7 366.7 394.3 400 398C433.3 401.7 466.7 405.3 500 402.2C533.3 399 566.7 389 600 391C633.3 393 666.7 407 700 410.3C733.3 413.7 766.7 406.3 800 399.3C833.3 392.3 866.7 385.7 883.3 382.3L900 379L900 601L883.3 601C866.7 601 833.3 601 800 601C766.7 601 733.3 601 700 601C666.7 601 633.3 601 600 601C566.7 601 533.3 601 500 601C466.7 601 433.3 601 400 601C366.7 601 333.3 601 300 601C266.7 601 233.3 601 200 601C166.7 601 133.3 601 100 601C66.7 601 33.3 601 16.7 601L0 601Z" fill="#3c0292"></path><path d="M0 372L16.7 380.3C33.3 388.7 66.7 405.3 100 409.2C133.3 413 166.7 404 200 394.5C233.3 385 266.7 375 300 379C333.3 383 366.7 401 400 405.7C433.3 410.3 466.7 401.7 500 409.3C533.3 417 566.7 441 600 445.2C633.3 449.3 666.7 433.7 700 428.7C733.3 423.7 766.7 429.3 800 432.8C833.3 436.3 866.7 437.7 883.3 438.3L900 439L900 601L883.3 601C866.7 601 833.3 601 800 601C766.7 601 733.3 601 700 601C666.7 601 633.3 601 600 601C566.7 601 533.3 601 500 601C466.7 601 433.3 601 400 601C366.7 601 333.3 601 300 601C266.7 601 233.3 601 200 601C166.7 601 133.3 601 100 601C66.7 601 33.3 601 16.7 601L0 601Z" fill="#44149f"></path><path d="M0 427L16.7 425.3C33.3 423.7 66.7 420.3 100 415.8C133.3 411.3 166.7 405.7 200 406.2C233.3 406.7 266.7 413.3 300 415.2C333.3 417 366.7 414 400 418C433.3 422 466.7 433 500 445.3C533.3 457.7 566.7 471.3 600 470.3C633.3 469.3 666.7 453.7 700 447.2C733.3 440.7 766.7 443.3 800 445.8C833.3 448.3 866.7 450.7 883.3 451.8L900 453L900 601L883.3 601C866.7 601 833.3 601 800 601C766.7 601 733.3 601 700 601C666.7 601 633.3 601 600 601C566.7 601 533.3 601 500 601C466.7 601 433.3 601 400 601C366.7 601 333.3 601 300 601C266.7 601 233.3 601 200 601C166.7 601 133.3 601 100 601C66.7 601 33.3 601 16.7 601L0 601Z" fill="#4c22ad"></path><path d="M0 490L16.7 489.5C33.3 489 66.7 488 100 489.7C133.3 491.3 166.7 495.7 200 490.2C233.3 484.7 266.7 469.3 300 467.7C333.3 466 366.7 478 400 474.7C433.3 471.3 466.7 452.7 500 442.7C533.3 432.7 566.7 431.3 600 431.7C633.3 432 666.7 434 700 442.8C733.3 451.7 766.7 467.3 800 465.5C833.3 463.7 866.7 444.3 883.3 434.7L900 425L900 601L883.3 601C866.7 601 833.3 601 800 601C766.7 601 733.3 601 700 601C666.7 601 633.3 601 600 601C566.7 601 533.3 601 500 601C466.7 601 433.3 601 400 601C366.7 601 333.3 601 300 601C266.7 601 233.3 601 200 601C166.7 601 133.3 601 100 601C66.7 601 33.3 601 16.7 601L0 601Z" fill="#532eba"></path><path d="M0 457L16.7 463.8C33.3 470.7 66.7 484.3 100 487.5C133.3 490.7 166.7 483.3 200 487.3C233.3 491.3 266.7 506.7 300 504.5C333.3 502.3 366.7 482.7 400 473C433.3 463.3 466.7 463.7 500 462.7C533.3 461.7 566.7 459.3 600 468.7C633.3 478 666.7 499 700 501.5C733.3 504 766.7 488 800 477.2C833.3 466.3 866.7 460.7 883.3 457.8L900 455L900 601L883.3 601C866.7 601 833.3 601 800 601C766.7 601 733.3 601 700 601C666.7 601 633.3 601 600 601C566.7 601 533.3 601 500 601C466.7 601 433.3 601 400 601C366.7 601 333.3 601 300 601C266.7 601 233.3 601 200 601C166.7 601 133.3 601 100 601C66.7 601 33.3 601 16.7 601L0 601Z" fill="#5b3ac8"></path><path d="M0 523L16.7 521.5C33.3 520 66.7 517 100 515.5C133.3 514 166.7 514 200 509.3C233.3 504.7 266.7 495.3 300 494.8C333.3 494.3 366.7 502.7 400 505C433.3 507.3 466.7 503.7 500 499.8C533.3 496 566.7 492 600 491.2C633.3 490.3 666.7 492.7 700 497.3C733.3 502 766.7 509 800 509.7C833.3 510.3 866.7 504.7 883.3 501.8L900 499L900 601L883.3 601C866.7 601 833.3 601 800 601C766.7 601 733.3 601 700 601C666.7 601 633.3 601 600 601C566.7 601 533.3 601 500 601C466.7 601 433.3 601 400 601C366.7 601 333.3 601 300 601C266.7 601 233.3 601 200 601C166.7 601 133.3 601 100 601C66.7 601 33.3 601 16.7 601L0 601Z" fill="#6246d6"></path><path d="M0 545L16.7 546.7C33.3 548.3 66.7 551.7 100 552.5C133.3 553.3 166.7 551.7 200 548.8C233.3 546 266.7 542 300 541.2C333.3 540.3 366.7 542.7 400 543.2C433.3 543.7 466.7 542.3 500 542.2C533.3 542 566.7 543 600 539.5C633.3 536 666.7 528 700 523C733.3 518 766.7 516 800 516.3C833.3 516.7 866.7 519.3 883.3 520.7L900 522L900 601L883.3 601C866.7 601 833.3 601 800 601C766.7 601 733.3 601 700 601C666.7 601 633.3 601 600 601C566.7 601 533.3 601 500 601C466.7 601 433.3 601 400 601C366.7 601 333.3 601 300 601C266.7 601 233.3 601 200 601C166.7 601 133.3 601 100 601C66.7 601 33.3 601 16.7 601L0 601Z" fill="#6a51e4"></path><path d="M0 562L16.7 562.8C33.3 563.7 66.7 565.3 100 565.5C133.3 565.7 166.7 564.3 200 564.2C233.3 564 266.7 565 300 562.8C333.3 560.7 366.7 555.3 400 553.5C433.3 551.7 466.7 553.3 500 557.3C533.3 561.3 566.7 567.7 600 566.7C633.3 565.7 666.7 557.3 700 555.5C733.3 553.7 766.7 558.3 800 558.3C833.3 558.3 866.7 553.7 883.3 551.3L900 549L900 601L883.3 601C866.7 601 833.3 601 800 601C766.7 601 733.3 601 700 601C666.7 601 633.3 601 600 601C566.7 601 533.3 601 500 601C466.7 601 433.3 601 400 601C366.7 601 333.3 601 300 601C266.7 601 233.3 601 200 601C166.7 601 133.3 601 100 601C66.7 601 33.3 601 16.7 601L0 601Z" fill="#715df2"></path></svg>